<?xml version="1.0" encoding="utf-8"?>
<svg version="1.1" xmlns:xlink="http://www.w3.org/1999/xlink" width="278px" height="40px" xmlns="http://www.w3.org/2000/svg">
  <g transform="matrix(1 0 0 1 -424 -274 )">
    <path d="M 425 277  A 2 2 0 0 1 427 275 L 699 275  A 2 2 0 0 1 701 277 L 701 311  A 2 2 0 0 1 699 313 L 427 313  A 2 2 0 0 1 425 311 L 425 277  Z " fill-rule="nonzero" fill="#ffffff" stroke="none" />
    <path d="M 424.5 277  A 2.5 2.5 0 0 1 427 274.5 L 699 274.5  A 2.5 2.5 0 0 1 701.5 277 L 701.5 311  A 2.5 2.5 0 0 1 699 313.5 L 427 313.5  A 2.5 2.5 0 0 1 424.5 311 L 424.5 277  Z " stroke-width="1" stroke="#cccccc" fill="none" stroke-opacity="0.698039215686274" />
  </g>
</svg>