<?xml version="1.0" encoding="utf-8"?>
<svg version="1.1" xmlns:xlink="http://www.w3.org/1999/xlink" width="212px" height="50px" xmlns="http://www.w3.org/2000/svg">
  <g transform="matrix(1 0 0 1 0 -252 )">
    <path d="M 1 277  A 24 24 0 0 1 25 253 L 187 253  A 24 24 0 0 1 211 277 A 24 24 0 0 1 187 301 L 25 301  A 24 24 0 0 1 1 277 Z " fill-rule="nonzero" fill="#ffffff" stroke="none" />
    <path d="M 0.5 277  A 24.5 24.5 0 0 1 25 252.5 L 187 252.5  A 24.5 24.5 0 0 1 211.5 277 A 24.5 24.5 0 0 1 187 301.5 L 25 301.5  A 24.5 24.5 0 0 1 0.5 277 Z " stroke-width="1" stroke="#ffffff" fill="none" stroke-opacity="0.00392156862745098" />
  </g>
</svg>