<?xml version="1.0" encoding="utf-8"?>
<svg version="1.1" xmlns:xlink="http://www.w3.org/1999/xlink" width="110px" height="50px" xmlns="http://www.w3.org/2000/svg">
  <g transform="matrix(1 0 0 1 -248 -52 )">
    <path d="M 249 77  A 24 24 0 0 1 273 53 L 333 53  A 24 24 0 0 1 357 77 A 24 24 0 0 1 333 101 L 273 101  A 24 24 0 0 1 249 77 Z " fill-rule="nonzero" fill="#ffffff" stroke="none" />
    <path d="M 248.5 77  A 24.5 24.5 0 0 1 273 52.5 L 333 52.5  A 24.5 24.5 0 0 1 357.5 77 A 24.5 24.5 0 0 1 333 101.5 L 273 101.5  A 24.5 24.5 0 0 1 248.5 77 Z " stroke-width="1" stroke="#ffffff" fill="none" stroke-opacity="0.00392156862745098" />
  </g>
</svg>