<?xml version="1.0" encoding="utf-8"?>
<svg version="1.1" xmlns:xlink="http://www.w3.org/1999/xlink" width="413px" height="50px" xmlns="http://www.w3.org/2000/svg">
  <g transform="matrix(1 0 0 1 0 -1 )">
    <path d="M 1 26  A 24 24 0 0 1 25 2 L 388 2  A 24 24 0 0 1 412 26 A 24 24 0 0 1 388 50 L 25 50  A 24 24 0 0 1 1 26 Z " fill-rule="nonzero" fill="#ffffff" stroke="none" />
    <path d="M 0.5 26  A 24.5 24.5 0 0 1 25 1.5 L 388 1.5  A 24.5 24.5 0 0 1 412.5 26 A 24.5 24.5 0 0 1 388 50.5 L 25 50.5  A 24.5 24.5 0 0 1 0.5 26 Z " stroke-width="1" stroke="#ffffff" fill="none" stroke-opacity="0.00392156862745098" />
  </g>
</svg>