<?xml version="1.0" encoding="utf-8"?>
<svg version="1.1" xmlns:xlink="http://www.w3.org/1999/xlink" width="205px" height="50px" xmlns="http://www.w3.org/2000/svg">
  <g transform="matrix(1 0 0 1 -417 -302 )">
    <path d="M 418 327  A 24 24 0 0 1 442 303 L 597 303  A 24 24 0 0 1 621 327 A 24 24 0 0 1 597 351 L 442 351  A 24 24 0 0 1 418 327 Z " fill-rule="nonzero" fill="#ffffff" stroke="none" />
    <path d="M 417.5 327  A 24.5 24.5 0 0 1 442 302.5 L 597 302.5  A 24.5 24.5 0 0 1 621.5 327 A 24.5 24.5 0 0 1 597 351.5 L 442 351.5  A 24.5 24.5 0 0 1 417.5 327 Z " stroke-width="1" stroke="#ffffff" fill="none" stroke-opacity="0.00392156862745098" />
  </g>
</svg>