<?xml version="1.0" encoding="utf-8"?>
<svg version="1.1" xmlns:xlink="http://www.w3.org/1999/xlink" width="101px" height="39px" xmlns="http://www.w3.org/2000/svg">
  <g transform="matrix(1 0 0 1 -601 -455 )">
    <path d="M 602 474.5  A 18.5 18.5 0 0 1 620.5 456 L 682.5 456  A 18.5 18.5 0 0 1 701 474.5 A 18.5 18.5 0 0 1 682.5 493 L 620.5 493  A 18.5 18.5 0 0 1 602 474.5 Z " fill-rule="nonzero" fill="#ffffff" stroke="none" fill-opacity="0.00392156862745098" />
    <path d="M 601.5 474.5  A 19 19 0 0 1 620.5 455.5 L 682.5 455.5  A 19 19 0 0 1 701.5 474.5 A 19 19 0 0 1 682.5 493.5 L 620.5 493.5  A 19 19 0 0 1 601.5 474.5 Z " stroke-width="1" stroke="#ffffff" fill="none" stroke-opacity="0.00392156862745098" />
  </g>
</svg>