<?xml version="1.0" encoding="utf-8"?>
<svg version="1.1" xmlns:xlink="http://www.w3.org/1999/xlink" width="19px" height="20px" xmlns="http://www.w3.org/2000/svg">
  <g transform="matrix(1 0 0 1 -229 -268 )">
    <path d="M 19 1.46240000000001  L 14.236 1.46240000000001  L 14.236 0.0416000000000086  L 13.052 0.0416000000000086  L 13.052 1.46240000000001  L 5.94799999999998 1.46240000000001  L 5.94799999999998 0.0416000000000086  L 4.76400000000001 0.0416000000000086  L 4.76400000000001 1.46240000000001  L 0 1.46240000000001  L 0 20  L 19 20  L 19 1.46240000000001  Z M 17.7986666666667 8.57919999999999  L 17.7986666666667 18.6784  L 1.20133333333331 18.6784  L 1.20133333333331 8.57919999999999  L 17.7986666666667 8.57919999999999  Z M 17.788 7.15840000000002  L 17.7986666666667 7.15840000000002  L 1.20133333333331 7.15840000000002  L 1.20133333333331 2.74240000000001  L 4.75333333333332 2.74240000000001  L 4.75333333333332 4.30399999999998  L 5.93733333333334 4.30399999999998  L 5.93733333333334 2.74240000000001  L 13.052 2.74240000000001  L 13.052 4.30399999999998  L 14.236 4.30399999999998  L 14.236 2.74240000000001  L 17.788 2.74240000000001  L 17.788 7.15840000000002  Z " fill-rule="nonzero" fill="#d7d7d7" stroke="none" transform="matrix(1 0 0 1 229 268 )" />
  </g>
</svg>