<?xml version="1.0" encoding="utf-8"?>
<svg version="1.1" xmlns:xlink="http://www.w3.org/1999/xlink" width="17px" height="16px" xmlns="http://www.w3.org/2000/svg">
  <g transform="matrix(1 0 0 1 -231 -319 )">
    <path d="M 16.9909308035714 7.97736283185841  C 16.9909308035714 12.347982300885  13.1926071428572 15.8913274336283  8.50728571428571 15.8913274336283  C 3.82179352678572 15.8913274336283  0.0236216517857208 12.3479646017699  0.0236216517857208 7.97734513274335  C 0.0236216517857208 3.60667256637169  3.82179352678572 0.0633982300884952  8.50728571428571 0.0633982300884952  C 13.1926071428572 0.0633982300884952  16.9909308035714 3.60667256637169  16.9909308035714 7.97736283185841  Z M 16.0295200892857 7.97736283185841  C 16.0295200892857 4.10192920353981  12.6616986607143 0.960230088495564  8.50728571428571 0.960230088495564  C 4.35287276785716 0.960230088495564  0.985013392857137 4.10185840707965  0.985013392857137 7.97736283185841  C 0.985013392857137 11.852796460177  4.35287276785716 14.9944778761062  8.50728571428571 14.9944778761062  C 12.6616986607143 14.9944778761062  16.0295200892857 11.852796460177  16.0295200892857 7.97736283185841  Z M 12.6119508928571 9.34044247787611  C 12.8627198660714 9.44989380530973  12.9702600446428 9.72769911504426  12.8529296875 9.96164601769911  C 12.7360926339286 10.1951504424779  12.4377957589286 10.2954513274336  12.1874821428571 10.1860353982301  L 8.20090625000001 8.94277876106196  C 8.01022544642857 8.8597168141593  7.90407031249999 8.67906194690266  7.91479017857142 8.49438938053098  C 7.91238058035715 8.47569911504425  7.90317857142857 8.46017699115043  7.90317857142857 8.44093805309734  L 7.90317857142857 3.30368141592919  C 7.90317857142857 3.04552212389382  8.1270625 2.83660176991151  8.40380580357145 2.83660176991151  C 8.68053013392858 2.83660176991151  8.90441406250001 3.04552212389382  8.90441406250001 3.30368141592919  L 8.90441406250001 8.18380530973451  L 12.6119508928571 9.34044247787611  Z " fill-rule="nonzero" fill="#d7d7d7" stroke="none" transform="matrix(1 0 0 1 231 319 )" />
  </g>
</svg>