<?xml version="1.0" encoding="utf-8"?>
<svg version="1.1" xmlns:xlink="http://www.w3.org/1999/xlink" width="180px" height="50px" xmlns="http://www.w3.org/2000/svg">
  <g transform="matrix(1 0 0 1 -358 -52 )">
    <path d="M 359 77  A 24 24 0 0 1 383 53 L 513 53  A 24 24 0 0 1 537 77 A 24 24 0 0 1 513 101 L 383 101  A 24 24 0 0 1 359 77 Z " fill-rule="nonzero" fill="#ffffff" stroke="none" />
    <path d="M 358.5 77  A 24.5 24.5 0 0 1 383 52.5 L 513 52.5  A 24.5 24.5 0 0 1 537.5 77 A 24.5 24.5 0 0 1 513 101.5 L 383 101.5  A 24.5 24.5 0 0 1 358.5 77 Z " stroke-width="1" stroke="#ffffff" fill="none" stroke-opacity="0.00392156862745098" />
  </g>
</svg>