<?xml version="1.0" encoding="utf-8"?>
<svg version="1.1" xmlns:xlink="http://www.w3.org/1999/xlink" width="12px" height="12px" viewBox="269 244.5  12 12" xmlns="http://www.w3.org/2000/svg">
  <path d="M 269.5 250.5  A 5.5 5.5 0 0 1 275 245 A 5.5 5.5 0 0 1 280.5 250.5 A 5.5 5.5 0 0 1 275 256 A 5.5 5.5 0 0 1 269.5 250.5 Z " fill-rule="nonzero" fill="#ffffff" stroke="none" />
  <path d="M 269.5 250.5  A 5.5 5.5 0 0 1 275 245 A 5.5 5.5 0 0 1 280.5 250.5 A 5.5 5.5 0 0 1 275 256 A 5.5 5.5 0 0 1 269.5 250.5 Z " stroke-width="1" stroke="#797979" fill="none" />
  <path d="M 271.571428571429 250.5  L 274.142857142857 253.071428571429  L 278.428571428571 247.071428571429  " stroke-width="2.57142857142857" stroke="#797979" fill="none" />
</svg>