<?xml version="1.0" encoding="utf-8"?>
<svg version="1.1" xmlns:xlink="http://www.w3.org/1999/xlink" width="224px" height="198px" xmlns="http://www.w3.org/2000/svg">
  <defs>
    <path d="M 0 0  L 220 0  L 220 69.75  L 0 69.75  Z " fill-rule="evenodd" fill="black" id="path130" />
    <clipPath id="clip131">
      <use xlink:href="#path130" />
    </clipPath>
    <filter x="-50.00%" y="-50.00%" width="200.00%" height="200.00%" filterUnits="objectBoundingBox" id="filter132">
      <feColorMatrix type="matrix" values="1 0 0 0 0  0 1 0 0 0  0 0 1 0 0  0 0 0 1 0  " in="SourceGraphic" />
    </filter>
  </defs>
  <g transform="matrix(1 0 0 1 -2 50 )">
    <g transform="matrix(1.01818181818182 0 0 1.01818181818182 2 13.4909090909091 )" clip-path="url(#clip131)" filter="url(#filter132)">
      <g>
	<rect x="68.423" y="50.674" fill="#231F20" width="148.808" height="0.232" />
	<path fill="#231F20" d="M71.536,64.739h2.508l-1.235-3.114L71.536,64.739z M68.423,68.034l1.066-0.242l3.441-7.826h0.521   l3.271,7.826l0.993,0.242v0.388h-3.525v-0.388l1.066-0.242l-0.993-2.496h-2.956l-1.017,2.496l1.054,0.242v0.388h-2.92V68.034z" />
	<path fill="#231F20" d="M80.186,65.685v-4.968l-1.079-0.242v-0.388h3.404v0.388l-0.92,0.242v4.846c0,1.817,0.582,2.254,2.229,2.254   c1.6,0,2.193-0.484,2.193-2.302v-4.798l-1.042-0.242v-0.388h2.847v0.388l-0.945,0.242l-0.23,5.186   c-0.073,1.769-1.102,2.617-3.089,2.617C81.591,68.52,80.186,67.574,80.186,65.685" />
	<path fill="#231F20" d="M91.197,67.609l-0.327,0.813h-0.315l-0.303-2.992l0.315-0.097c1.102,1.986,1.624,2.567,2.895,2.567   c0.945,0,1.611-0.352,1.611-1.308c0-1.03-0.484-1.345-2.023-1.854c-1.381-0.449-2.568-1.078-2.568-2.556   c0-1.261,0.909-2.193,2.423-2.193c0.848,0,1.466,0.352,1.805,0.689l0.291-0.593h0.303l0.267,2.508l-0.279,0.061   c-0.945-1.6-1.393-2.048-2.411-2.048c-0.848,0-1.381,0.376-1.381,1.188c0,0.848,0.448,1.09,1.853,1.515   c1.455,0.437,2.859,1.211,2.859,2.738c0,1.526-1.029,2.472-2.762,2.472C92.336,68.52,91.633,68.07,91.197,67.609" />
	<polygon fill="#231F20" points="100.21,68.034 101.506,67.792 101.506,60.511 99.968,60.704 98.792,62.994 98.502,62.934    98.671,60.087 105.746,60.087 105.916,62.934 105.625,62.994 104.45,60.704 102.911,60.511 102.911,67.792 104.208,68.034    104.208,68.422 100.21,68.422  " />
	<path fill="#231F20" d="M110.857,64.109h0.908c1.648,0,2.023-0.304,2.023-1.744c0-1.467-0.388-1.696-1.781-1.696h-1.15V64.109z    M114.031,68.119c-1.15-3.053-1.138-3.417-2.435-3.417h-0.739v3.09l1.176,0.243v0.387h-3.719v-0.387l1.138-0.243v-7.075   l-1.138-0.242v-0.388h3.84c1.684,0,3.09,0.775,3.09,2.278c0,1.283-1.091,1.901-2.496,2.107v0.049   c0.824,0.108,1.283,0.362,1.829,1.393l1.005,1.878l0.801,0.243v0.387h-1.77C114.249,68.422,114.116,68.35,114.031,68.119" />
	<path fill="#231F20" d="M121.372,64.739h2.508l-1.234-3.114L121.372,64.739z M118.259,68.034l1.067-0.242l3.439-7.826h0.521   l3.27,7.826l0.994,0.242v0.388h-3.526v-0.388l1.067-0.242l-0.993-2.496h-2.956l-1.018,2.496l1.053,0.242v0.388h-2.919V68.034z" />
	<polygon fill="#231F20" points="129.791,68.034 130.929,67.792 130.929,60.717 129.791,60.475 129.791,60.087 133.511,60.087    133.511,60.475 132.335,60.717 132.335,67.961 135.121,67.743 136.49,65.502 136.78,65.563 136.37,68.422 129.791,68.422  " />
	<polygon fill="#231F20" points="139.022,68.034 140.208,67.792 140.208,60.717 139.022,60.475 139.022,60.087 142.802,60.087    142.802,60.475 141.614,60.717 141.614,67.792 142.802,68.034 142.802,68.422 139.022,68.422  " />
	<path fill="#231F20" d="M148.155,64.739h2.508l-1.235-3.114L148.155,64.739z M145.042,68.034l1.067-0.242l3.439-7.826h0.521   l3.27,7.826l0.996,0.242v0.388h-3.528v-0.388l1.067-0.242l-0.993-2.496h-2.956l-1.018,2.496l1.055,0.242v0.388h-2.921V68.034z" />
	<path fill="#231F20" d="M55.622,40.058c-0.655,0.236-1.051-0.025-1.312-0.327c-0.08-0.094-0.229-0.043-0.234,0.079   c-0.013,0.322-0.055,0.753-0.244,1.162c-0.33,0.716-1.388,1.056-2.026,0.854c-0.64-0.415-0.477-1.501-0.25-2.135   c-0.704-0.052-1.319,1.586-2.077,1.495c-0.623-0.074-0.719-1.092-0.512-1.524c0.611-1.297,2.543-1.851,3.396-2.271   c0.863-1.45-0.943-5.479-2.04-7.814c0,0-3.252,1.223-7.394,0.418c-4.872-0.947-7.654-2.682-8.763-5.73   c-0.797-2.187-3.627-1.328-3.627-1.328c1.273,0.191,2.348,0.688,2.785,2.092c0.247,0.791-2.313,0.612-3.957-0.5   c-1.427,3.024-4.273,5.824-8.648,5.225c-0.418-0.059-1.705,1.71-1.243,1.52c1.971-0.813,3.455,1.057,2.533,2.316   c-0.87,1.188-3.1,0.997-3.765-0.257c-0.051-0.097-0.196-0.064-0.207,0.045c-0.1,0.964-0.065,2.563-1.307,2.818   c-0.973,0.2-1.388-0.562-1.628-1.161c-0.045-0.112-0.208-0.094-0.229,0.026c-0.118,0.711-0.309,1.912-1.189,1.973   c-0.788,0.054-1.019-0.586-1.178-0.992c-0.042-0.106-0.194-0.086-0.21,0.027c-0.209,1.48-1.551,2.77-2.663,0.733   c-0.548,1.265-2.013,4.173-3.255,3.272c-0.94-0.682-0.094-2.05,0.41-2.773c0.077-0.109-0.048-0.247-0.163-0.181   c-0.619,0.359-1.179,0.639-1.846,0.271c-1.387-0.771-0.646-3.119,0.719-3.595c0.108-0.038,0.123-0.184,0.026-0.246   c-0.524-0.339-0.747-0.738-0.513-1.163c0.23-0.419,1.067-0.567,1.654-0.295c1.288,0.598,1.384,1.692,1.752,3.065   c3.388-0.476,7.466-3.677,10.379-6.442c0,0,2.262,0.388,2.914-2.623c0,0,2.657-0.426,2.664-3.995c0,0,1.795-0.932,1.795-2.858   c4.218-0.028,5.569-0.063,9.033-0.814c1.728-0.375,3.469-0.533,4.861-0.295c2.066,0.352,3.658,1.442,4.614,2.66   c0.966,1.229,1.12,3.073,2.313,3.849c1.712,1.11,5.093,0.979,7.194,0.085c0,0,0.601,2.13-2.078,2.178   c-0.265,0.005-0.243,0.211-0.043,0.316c0.159,0.084,0.622,0.219,0.817,0.27c1.863,0.483,2.595,2.179-0.511,1.857   c-0.125-0.013-0.245,0.08-0.245,0.206c0,0.12,0.314,0.152,0.692,0.31c1.415,0.589,1.595,0.997,1.516,1.325   c-0.042,0.175-0.357,0.356-0.593,0.438c-0.113,0.039-0.116,0.198-0.004,0.24c0.646,0.239,3.112,1.469,2.727,2.773   c-0.468,1.588-2.898,1.168-2.43,1.581c0.82,0.305,1.75,1,2.09,1.893C56.434,38.923,56.429,39.768,55.622,40.058 M42.59,34.248   c0,0,0.05,3.389-3.415,2.738c0,0,0.311,1.636,0.324,2.35c0.013,0.713,0.03,1.643-1.548,0.099c-0.216-0.209-0.475,0.174-0.342,0.576   c0.299,0.909,0.593,3.527-1.024,1.946c-0.217-0.211-0.523-0.128-0.418,0.294c0.759,3.054-0.507,4.039-1.161,2.161   c-0.149-0.426-0.288-0.353-0.567-0.133c-0.277,0.219-2.922,2.051-2.922,2.051c0.308,1.565-0.896,3-2.105,2.872   c-1.122-0.119-1.405-1.485-1.364-2.368c0.007-0.152-0.169-0.24-0.284-0.141c-0.85,0.75-2.567,1.262-3.294,0.13   c-0.955-1.716,0.947-2.452,0.947-2.452c0.571-0.218,0.625-0.582-0.01-0.57c-0.634,0.011-2.169,0.083-2.059-0.821   c0.123-1.014,1.575-1.008,2.239-0.968c0.664,0.041,3.178,0.3,4.976,2.266c0,0,4.964-2.684,4.45-7.502   c-0.205-1.918-1.677-3.503-2.696-5.02c-1.018-1.515-1.681-2.919-0.894-5.266c0.754,0.121,1.908,0.067,2.359-0.077   c0,0,1.958,2.391,4.714,3.484C38.496,29.897,37.306,34.414,42.59,34.248 M12.616,24.415c-0.021-0.131-0.207-0.132-0.226-0.001   c-0.127,0.856,0.055,2.388,0.055,2.388c-1.436,1.361-2.605-0.191-2.232-1.285c-3.087,0.184-2.026-2.961-2.026-2.961   c-2.675,0.19-1.945-2.391-1.945-2.391c-1.508-1.615-0.823-2.77-0.417-3.705c0.406-0.935-0.181-1.685-0.42-2.39   c-0.177-0.522-0.078-1.19,0.266-1.886c0,0,0.865,0.752,1.153,1.393c0.421,0.92-0.081,1.913-0.214,2.601   c-0.133,0.689,0.32,1.564,0.725,2.021c0.405,0.458,2.197,1.677,4.836,2.732c0,0-0.321,1.417,0.253,1.976   c0.05,0.051,0.389-1.378,1.099-2.65c0.406-0.727,2.417-3.048,3.173-4.132c0.755-1.084,1.753,0.678,1.753,0.678   c0.243-2.834-1.46-2.899-2.094-2.888c-0.636,0.011-1.812,0.75-1.812,0.75c-0.421-0.708-0.092-1.251,0.183-1.685   c0,0,1.76-0.103,2.252-0.112c0.493-0.009,0.563-0.082,0.556-0.438c-0.006-0.357-0.434-1.345-0.946-1.696   c-0.459-0.314-0.987-0.049-2.118-0.176c-1.625-0.185-1.888-2.715-1.888-2.715c0.423,0.064,1.057-0.018,1.754-0.459   c0.697-0.44,1.031-1.445,1.868-2.032c0.835-0.587,2.735-0.763,4.143-0.86c1.409-0.097,1.673-1.101,2.014-1.75   c0,0,1.278,0.548,1.374,1.975c0.152,2.277-1.876,1.532-1.876,1.532c0.169,1.567,1.369,1.094,1.535,1.038   c1.386,2.066-1.22,3.795-2.862,3.625c-0.716-0.073-0.36,0.5,0.111,0.597c2.906,0.595,3.823-1.572,3.823-1.572   c1.036,0.461,0.543,1.408,0.543,1.408c0.572,0.205,0.551,0.789,0.551,0.789c-0.427-0.135-1.268-0.18-1.553-0.12   c-0.392,0.082-0.476,0.439-0.054,0.433c2.063-0.038,2.893,1.619,2.42,2.348c-0.606-0.599-1.85-1.314-2.347-1.519   c-0.497-0.204-0.562,0.153-0.346,0.292c1.651,1.072,1.895,1.781,2.365,2.313c0.513,0.58-0.404,1.673-0.404,1.673   c-0.665-1.542-1.528-2.332-1.996-2.709c-0.353-0.286-0.791-0.128-0.575,0.162c0.591,0.792,1.357,2,1.944,3.633   c0.533,1.482-0.786,2.127-0.786,2.127c-0.252-2.35-1.971-3.889-2.473-4.38c-0.502-0.49-0.562,0.081-0.345,0.434   c0.217,0.354,1.3,1.761,1.632,4.611c0.331,2.848-1.09,2.901-1.09,2.901c0.31-3.155-1.556-5.066-1.917-5.489   c-0.36-0.421-0.479,0.066-0.225,0.583c0.396,0.803,1.222,2.96,0.987,5.749c-0.233,2.787-1.758,2.602-2.196,1.752   c-0.439-0.849-0.849-2.602-0.709-3.717c0.139-1.116-0.061-1.118-0.262-0.755c-0.337,0.608-0.67,2.518-0.049,4.269   c0.752,2.12-0.638,0.719-1.066,0.097c-0.606-0.88-1.129-2.156-1.446-3.019c-0.037-0.101-0.183-0.073-0.183,0.035   c0.019,2.339,0.73,3.114,1.68,4.983c0.064,0.127-0.042,0.272-0.18,0.25C15.131,28.875,12.995,26.782,12.616,24.415 M5.126,10.757   c-0.289-0.146-0.533-0.202-0.939-0.165c0,0,0.468,0.66,0.617,1.085c0,0-0.309,0.642-0.375,1.061   c-0.152-0.202-0.275-0.268-0.48-0.458c0.235-0.805-0.431-1.808-1.003-2.144c0.101-1.552,0.173-2.546,0.173-2.546   c0.655,0.423,1.796,0.685,2.462,0.82L5.126,10.757z M4.3,15.453l-0.405-0.395c0.144-0.842-0.355-1.501-1.076-1.867   c0.579,0.084,0.862-0.304,0.862-0.304s0.414,0.078,0.684,0.044c-0.024,0.192-0.028,0.393,0.005,0.594   c0.036,0.21,0.096,0.408,0.16,0.602L4.3,15.453z M3.878,17.869L3.33,17.453c0.109-0.483-0.022-0.969-0.465-1.228   c0.415-0.049,0.625-0.269,0.748-0.577c0.117,0.075,0.427,0.145,0.638,0.151L3.878,17.869z M2.046,28.497   c-0.031,0.154-0.072,0.223-0.161,0.216c-0.108-0.008-0.119-0.092-0.136-0.241c-0.029-0.262,0.007-0.712,0.024-1.065   c0.023-0.483,0.369-4.602,0.648-8.947c0.314-0.021,0.522-0.068,0.686-0.335c0,0,0.366,0.129,0.727,0.005   C3.834,18.129,2.327,27.072,2.046,28.497 M0.864,16.919c-0.346-0.451-0.405-1.174-0.157-1.285c0.364,0.229,0.496,0.508,1.656,0.87   c0.364,0.25,0.372,0.977-0.168,1.104C1.819,17.696,1.209,17.369,0.864,16.919 M0.442,13.482c0.213-0.458,0.663-0.375,0.764-0.317   c0.184,0.106,1.177,0.76,1.49,0.9c0.312,0.14,0.656,0.555,0.425,1.026c-0.246,0.505-0.857,0.359-1.189,0.258   s-0.713-0.389-0.972-0.61C0.701,14.519,0.257,13.879,0.442,13.482 M1.596,10.771c0.25-0.158,0.902-0.114,1.41,0.617   c0.286,0.412,0.29,0.818,0.052,1.056c-0.225,0.224-0.708,0.497-1.477-0.288C1.168,11.734,1.177,11.037,1.596,10.771 M2.573,4.491   c0.324-1.942,2.96-2.532,4.926-1.808c1.09,0.401,2.57,0.041,3.339-0.259c0.771-0.299,1.242-0.325,1.742-0.143   c0.82,0.301,1.927,0.054,2.472-0.115c0,0-0.913,0.764-1.547,0.739c-0.847-0.032-1.481,0.844-1.754,1.349   c-0.273,0.505-0.6,0.771-1.747,0.816C8.417,5.136,8.344,6.226,8.22,6.73C8.043,7.448,7.184,7.471,6.298,7.359   c-1.656-0.21-2.447-0.588-3.08-1.093C2.586,5.761,2.502,5.165,2.573,4.491 M13.57,12.119c-1.056,0.024-1.344-0.327-1.56-0.68   c0,0,0.564,0.078,0.847,0.071c0.282-0.007,1.621-0.036,2.255-0.05c0.636-0.015,0.991,0.334,1.067,0.601   C16.179,12.06,14.628,12.095,13.57,12.119 M55.072,19.709c2.417-1.46,0.74-4.44-1.957-5.224c-3.604-1.047-13.847,0.21-16.616,0.066   c-2.885-0.149-4.997-0.497-6.495-2.095s-1.621-3.968-0.593-5.7c1.029-1.517,2.899-1.954,4.592-1.974   c4.481-0.055,6.917-2.049,9.465-2.846c4.68-1.465,6.1,0.916,6.1,0.916s-3.425-1.521-8.917,1.999   c0.743,0.326,2.115,0.952,4.263,1.127c5.012,0.409,6.36-2.396,9.046-1.375c0,0-1.064,0-1.656,0.707   c3.741-0.685,4.599,1.522,4.599,1.522c-7.979-1.87-7.044,1.63-11.203,1.808c-2.231,0.095-7.199-2.212-7.644-2.212   c0.369,1.424-0.259,3.939-2.47,3.139c0.776-0.869,0.979-2.764-2.013-2.764c-2.992,0-3.405,2.866-2.537,4.136   c1.301,1.904,2.69,2.2,6.17,2.173c0,0,2.224-1.449,3.03-0.97c-0.096,0.195-0.399,0.801-0.399,0.801   c1.146-0.539,3.542-1.505,4.274-1.056c0,0-0.185,0.33-0.444,0.846c2.129-0.988,3.934-1.564,4.968-1.078l-0.512,0.974   c1.469-0.668,2.929-1.765,4.631-1.226l-0.581,1.072c2.795-0.359,4.381-0.124,4.847,0.348c-0.155,0.157-0.85,0.535-1.183,0.838   c1.139,0.442,4.71,5.832-0.991,7.472c-1.665,0.479-5.523,0.573-8.551-0.079c-0.233-0.427-0.743-1.078-0.743-1.078   C51.118,20.841,53.622,20.585,55.072,19.709 M50.028,4.281c0,0-2.51,1.542-7.324,0.344c0,0,2.681-1.436,5.017-1.231   C49.71,3.548,50.028,4.281,50.028,4.281 M56.924,40.234c0,0,1.083-1.194-0.726-3.875c0,0,0.489-0.135,0.769-0.643   c0.266,0.329,0.547,0.838,0.725,1.557c0,0,0.783-1.064-0.085-2.332c0,0,0.123-1.344-0.805-2.162   c-1.055-0.932-1.49-1.046-1.49-1.046c0.17-0.025,0.865-1.302-0.385-1.848c0,0,1.732-1.316-0.619-2.701c0,0,1.07-0.816,0.915-2.168   c-0.122-1.064-0.49-1.694-0.49-1.694s-7.068,2.967-8.014-1.25c1.823,0.676,6.318,0.858,9.368-0.332   c3.051-1.191,4.258-4.492,1.482-7.981l1.213-0.923c-1.397-1.292-2.628-1.673-5.19-1.292l0.455-0.876   c-0.71-0.224-2.307-0.932-4.625,0.281c-0.643-0.449-1.441-0.966-4.418,0.274c0,0-1.219-1.264-3.94,0.284   c0,0-1.501-1.185-3.936,0.714c0,0-2.091,0.206-3.533-0.436c-2.764-1.229-2.261-3.893,0.145-3.893c2.054,0,0.686,1.756,0.56,1.914   c0.134,0.183,1.242,0.846,2.165,0.785c1.339-0.088,2.29-0.822,2.523-2.817c0,0,2.878,0.991,4.491,1.479   c1.265,0.382,3.161,0.562,4.891-0.449c1.257-0.734,2.817-1.761,4.862-1.655c1.845,0.096,3.686,0.324,4.897,1.087   c0,0,0.043-2.97-3.062-3.655c-0.478-0.977-2.34-1.516-4.414-0.595c0,0,0.614-3.413-4.778-3.413c-4.382,0-6.545,3.127-11.438,3.142   c-4.367,0.013-5.673,1.876-6.286,3.1c-0.503,1.007-0.917,4.014,0.739,5.983c1.658,1.967,3.142,2.298,5.475,2.612   c1.227,0.167,3.455,0.132,5.73,0.032c2.05-0.089,8.716-0.575,11.076-0.232c3.551,0.516,3.844,1.956,3.806,2.734   c-0.024,0.499-0.576,1.347-2.063,1.482c-1.691,0.153-6.975-0.019-8.362-0.742c-1.387-0.722-2.956-1.555-4.691-1.673   c-3.313-0.225-5.271,0.646-7.901,0.876c-1.736,0.152-5.445,0.234-5.445,0.234s1.177-1.235,0.38-2.505c0,0,1.252-0.951-0.479-3.132   c0,0,0.125-0.844-0.446-1.276c0,0,0.199-1.804-1.214-2.102c0.188-0.561,0.277-1.516-0.41-2.421c0,0,0.408-0.58,0.396-1.308   c-0.024-1.355-0.117-2.639-2.82-4.017c0,0-0.604,1.724-1.176,1.77c-0.911,0.073-3.646,0.672-4.344,1.042   c-0.698,0.369-1.534,0.955-1.946,1.604c-0.411,0.65-0.759,0.943-1.461,1.098c-0.702,0.156-1.563,0.204-1.461,1.097   c0.049,0.431,0.247,1.994,1.671,2.826c0,0-1.714,0.153-2.356-0.264c0,0,0.167,2.508,2.815,2.396c0,0-0.936,1.612,0.548,2.988   c0.407-0.229,1.462-1.026,1.892-0.606c0,0-2.901,3.407-3.584,4.634c0,0-2.835-0.948-4.342-2.42   c-0.358-0.351-0.687-1.328-0.46-2.062c0.201-0.646,0.38-1.243-0.109-2.282c-0.453-0.963-1.074-1.413-1.34-1.648   C6.291,11.375,6.889,8.59,6.889,8.59c0.61,0.089,1.764,0.044,2.175-0.685c0.546-0.973,0.244-1.898,0.849-1.94   c0.449-0.048,1.166,0.193,1.999-0.571c0.637-0.585,1.032-1.375,1.737-1.458c0.702-0.084,1.12-0.376,1.536-0.742   c0.417-0.364,1.21-1.413,2.999-1.374c0.499,0.01,0.767-0.514-0.154-0.71c-0.919-0.199-2.247-0.032-3.018,0.197   c-0.771,0.228-1.121,0.376-1.76,0.103c-0.641-0.273-1.347-0.333-2.327,0.042C9.947,1.826,8.385,2.049,7.532,1.707   c-0.852-0.341-2.151-0.56-3.955-0.008c-2.056,0.629-3.208,3.029-1.79,4.724l-0.1,3.459c-0.996,0.124-1.553,1.106-1.145,2.355   c0,0-1.822,0.675-0.375,2.79c0,0-0.833,1.043,0.104,2.28c0.401,0.53,1.035,0.876,1.035,0.876s-0.411,7.479-0.496,9.806   c-0.045,1.264,0.311,1.767,0.902,1.842c0.707,0.089,1.194-0.404,1.479-1.752c0.259-1.227,0.882-4.604,1.578-8.295   c0.255,0.433,0.427,0.646,0.427,0.646c0.026,1.499,0.117,2.711,1.952,2.821c0,0-0.313,0.873,0.079,1.788   c0.533,1.25,2.021,1.385,2.021,1.385c0.788,3.439,3.473,1.433,3.622,1.147c0.128,0.309,1.262,1.799,2.682,2.394   c-1.083,1.225-3.512,2.977-6.316,3.812c0,0-0.959-3.838-4.837-2.555c0,0-1.215-0.373-2.486,0.615c0,0,1.641,0.358,1.942,0.537   c-0.212,0.241-0.227,0.87,0.142,1.137c0,0-0.753,0.437-1.01,1.59c0,0-2.103,0.681-1.789,2.995c0,0,1.399-1.132,1.679-1.208   c0,0,0.381,1.563,1.934,1.75c0,0-0.496,0.999,0.316,1.92c0,0-0.534,1.724,0.675,2.808c0,0,0.158-1.761,0.436-2.051   c0,0,0.671,0.354,1.368-0.086c0.697-0.44,1.595-1.458,2.208-2.682l0.499,0.276c0.149,0.428-0.19,1.681-0.249,2.324   c0,0,0.363,0.564,1.516-2.024c0,0,0.844-0.551,1.044-1.196c0,0,1.772,0.537,2.732-0.978c0,0,2.317,1.439,3.32-1.648   c0,0,2.071,0.885,3.692-0.477c0.867-0.729,1.502-2.338,0.28-4.074c0,0,4.09,0.052,7.038-4.783l0.656,0.255   c-0.311,0.583-0.667,3.189,0.206,4.744c0.873,1.555,2.856,3.954,3.189,4.938c1.276,3.782-2.249,6.464-3.051,6.978   c-2.469-1.818-7.419-3.215-8.459-0.062c0,0-1.214,0.967-1.252,2.896c0,0,1.225-1.302,1.697-1.62c0,0,0.278,0.404,0.712,0.417   c0,0-0.957,1.659-0.088,2.999c0,0-0.614,1.709,0.475,3.474c0,0,0.324-2.204,0.809-2.64c0,0,0.995,0.481,2.4,0.171   c0,0,0.25,0.955,1.011,1.337c0,0,0.275,2.256,1.52,2.793c0,0-0.254-1.854-0.033-2.318c2.474,0,3.272-2.953,3.111-3.555L34.4,45.6   c0.147,0.356,0.327,0.766,0.649,0.846c0,0-0.336,1.397-0.75,1.904c0,0,0.791,0.538,1.876-1.838c0,0,1.257,0.037,1.149-3.034   c0,0,1.418,0.474,1.65-2.313c0,0,2.267,0.674,1.354-3.235c0,0,2.077,0.084,2.726-1.405c0.813-1.87,0.436-3.221,0.436-3.221   s-4.731,0.552-3.789-2.927c0,0,6.17,1.778,9.949,0.462c0,0,1.313,2.474,1.616,3.753c0.306,1.279,0.247,1.995,0.247,1.995   c-0.206,0.289-5.472,1.84-3.091,5.088c0,0-0.048,1.467,1.456,2.794c0,0-0.296-1.495-0.098-2.213c0,0,0.485,0.157,0.881-0.284   c-0.056,0.206,0.053,0.698,0.534,1.008c0.115,0.194,0.081,1.302,1.767,2.35c0,0-0.489-1.871-0.489-2.266   c0,0,2.041-0.189,2.244-1.932c0.596,0.406,1.317-0.11,1.317-0.11s1.669,0.729,2.451-0.584   C58.483,40.437,57.281,40.443,56.924,40.234" />
	<path fill="#ED3024" d="M0.864,16.918c-0.346-0.45-0.405-1.173-0.158-1.284c0.365,0.229,0.497,0.508,1.656,0.87   c0.364,0.25,0.372,0.977-0.168,1.104C1.819,17.696,1.209,17.369,0.864,16.918" />
	<path fill="#ED3024" d="M54.035,36.22c0.82,0.305,1.75,0.999,2.09,1.893c0.309,0.811,0.304,1.655-0.503,1.945   c-0.655,0.236-1.051-0.025-1.312-0.327c-0.08-0.094-0.229-0.043-0.234,0.079c-0.013,0.322-0.055,0.753-0.244,1.162   c-0.33,0.716-1.388,1.056-2.026,0.854c-0.64-0.415-0.477-1.501-0.25-2.135c-0.704-0.052-1.319,1.586-2.077,1.495   c-0.623-0.074-0.719-1.092-0.512-1.524c0.611-1.297,2.543-1.851,3.396-2.271c0.863-1.45-0.943-5.479-2.04-7.814   c0,0-3.252,1.223-7.394,0.418c-4.872-0.947-7.654-2.682-8.763-5.73c-0.797-2.186-3.627-1.327-3.627-1.327   c1.274,0.191,2.348,0.688,2.786,2.092c0.247,0.791-2.313,0.612-3.957-0.5c-1.427,3.024-4.273,5.824-8.648,5.225   c-0.418-0.059-1.705,1.71-1.243,1.52c1.971-0.813,3.455,1.057,2.533,2.316c-0.87,1.188-3.1,0.996-3.765-0.257   c-0.052-0.097-0.196-0.064-0.207,0.045c-0.1,0.962-0.065,2.563-1.307,2.818c-0.973,0.2-1.388-0.562-1.628-1.161   c-0.045-0.112-0.208-0.094-0.229,0.026c-0.118,0.711-0.309,1.912-1.189,1.973c-0.788,0.054-1.019-0.586-1.178-0.992   c-0.042-0.106-0.194-0.086-0.21,0.027c-0.209,1.48-1.551,2.77-2.663,0.733c-0.548,1.265-2.013,4.172-3.255,3.272   c-0.94-0.682-0.094-2.05,0.41-2.773c0.077-0.109-0.048-0.247-0.163-0.181c-0.619,0.359-1.179,0.639-1.846,0.27   C3.394,36.62,4.135,34.272,5.5,33.797c0.108-0.038,0.123-0.185,0.026-0.246c-0.524-0.339-0.747-0.738-0.513-1.164   c0.23-0.418,1.067-0.566,1.653-0.294c1.289,0.597,1.385,1.692,1.753,3.065c3.388-0.476,7.466-3.677,10.379-6.442   c0,0,2.262,0.388,2.914-2.622c0,0,2.657-0.427,2.664-3.995c0,0,1.795-0.932,1.795-2.858c4.218-0.028,5.569-0.063,9.033-0.814   c1.728-0.375,3.469-0.533,4.861-0.295c2.066,0.352,3.657,1.441,4.614,2.66c0.966,1.229,1.12,3.074,2.313,3.849   c1.712,1.11,5.093,0.979,7.194,0.084c0,0,0.601,2.131-2.078,2.179c-0.265,0.005-0.243,0.211-0.043,0.316   c0.159,0.083,0.622,0.219,0.817,0.27c1.863,0.483,2.595,2.179-0.511,1.857c-0.125-0.013-0.245,0.08-0.245,0.206   c0,0.12,0.314,0.152,0.692,0.31c1.415,0.589,1.595,0.997,1.516,1.325c-0.042,0.175-0.357,0.356-0.593,0.438   c-0.113,0.038-0.116,0.198-0.004,0.24c0.646,0.239,3.112,1.469,2.727,2.772C55.997,36.227,53.566,35.806,54.035,36.22" />
	<path fill="#ED3024" d="M55.072,19.709c2.417-1.46,0.74-4.439-1.957-5.224c-3.604-1.047-13.847,0.21-16.616,0.067   c-2.885-0.149-4.997-0.498-6.495-2.096s-1.621-3.968-0.593-5.7c1.029-1.517,2.899-1.954,4.592-1.974   c4.481-0.055,6.917-2.049,9.465-2.846c4.68-1.465,6.1,0.916,6.1,0.916s-3.425-1.521-8.917,1.999   c0.743,0.326,2.115,0.952,4.263,1.127c5.012,0.409,6.36-2.396,9.046-1.375c0,0-1.064,0-1.656,0.707   c3.741-0.685,4.599,1.522,4.599,1.522c-7.979-1.87-7.044,1.63-11.203,1.808c-2.231,0.096-7.199-2.212-7.644-2.212   c0.369,1.424-0.259,3.939-2.47,3.139c0.776-0.869,0.979-2.764-2.013-2.764c-2.992,0-3.405,2.866-2.537,4.136   c1.301,1.904,2.69,2.2,6.17,2.173c0,0,2.224-1.448,3.03-0.97c-0.096,0.195-0.399,0.801-0.399,0.801   c1.146-0.539,3.542-1.505,4.274-1.055c0,0-0.185,0.329-0.444,0.846c2.129-0.988,3.934-1.564,4.968-1.078l-0.512,0.974   c1.469-0.668,2.929-1.765,4.631-1.226l-0.581,1.072c2.795-0.359,4.381-0.124,4.847,0.348c-0.155,0.157-0.85,0.535-1.183,0.838   c1.139,0.442,4.71,5.832-0.991,7.472c-1.665,0.479-5.523,0.573-8.55-0.079c-0.233-0.426-0.744-1.078-0.744-1.078   C51.118,20.841,53.622,20.585,55.072,19.709" />
	<path fill="#ED3024" d="M0.442,13.482c0.213-0.458,0.663-0.375,0.764-0.317c0.184,0.106,1.177,0.76,1.49,0.9   c0.312,0.14,0.656,0.555,0.425,1.026c-0.246,0.505-0.857,0.359-1.189,0.258s-0.713-0.389-0.972-0.61   C0.701,14.519,0.257,13.879,0.442,13.482 M19.824,6.858c-1.732,1.815-3.505,1.133-3.722,0.781L16.075,6.14   c0.642,0.417,1.066,0.48,1.489,0.473c0.422-0.007,1.551-0.027,1.551-0.027S20.032,6.641,19.824,6.858 M24.024,13.277   c0.498,0.205,1.741,0.92,2.347,1.519c0.473-0.729-0.356-2.386-2.419-2.348c-0.422,0.006-0.338-0.351,0.054-0.433   c0.285-0.06,1.126-0.015,1.553,0.119c0,0,0.021-0.583-0.551-0.789c0,0,0.492-0.947-0.543-1.408c0,0-0.917,2.167-3.823,1.572   c-0.472-0.097-0.828-0.67-0.111-0.597c1.642,0.17,4.248-1.559,2.862-3.625c-0.167,0.056-1.366,0.53-1.535-1.038   c0,0,2.029,0.746,1.876-1.532c-0.095-1.426-1.374-1.975-1.374-1.975c-0.341,0.649-0.605,1.653-2.014,1.75   c-1.408,0.097-3.308,0.273-4.143,0.86c-0.836,0.586-1.17,1.591-1.868,2.032c-0.697,0.441-1.331,0.524-1.754,0.459   c0,0,0.264,2.53,1.888,2.715c1.131,0.127,1.658-0.138,2.118,0.176c0.513,0.351,0.94,1.339,0.946,1.696   c0.006,0.355-0.063,0.428-0.556,0.438c-0.492,0.009-2.252,0.112-2.252,0.112c-0.275,0.433-0.604,0.977-0.183,1.685   c0,0,1.176-0.739,1.812-0.75c0.634-0.011,2.337,0.054,2.094,2.888c0,0-0.998-1.762-1.753-0.678   c-0.756,1.084-2.767,3.406-3.173,4.132c-0.709,1.271-0.787,1.684-1.099,2.65c-0.574-0.56-0.253-1.976-0.253-1.976   c-2.64-1.056-4.431-2.275-4.837-2.732c-0.404-0.458-0.857-1.333-0.724-2.021s0.636-1.681,0.214-2.601   c-0.288-0.64-1.153-1.393-1.153-1.393c-0.344,0.696-0.443,1.364-0.266,1.886c0.239,0.705,0.827,1.455,0.42,2.39   c-0.406,0.936-1.091,2.089,0.417,3.705c0,0-0.729,2.582,1.945,2.391c0,0-1.061,3.146,2.026,2.961   c-0.373,1.094,0.796,2.646,2.232,1.285c0,0-0.182-1.532-0.055-2.388c0.02-0.131,0.205-0.13,0.226,0.001   c0.378,2.368,2.515,4.461,3.77,4.657c0.138,0.022,0.244-0.124,0.18-0.25c-0.95-1.869-1.661-2.644-1.68-4.983   c0-0.107,0.146-0.135,0.183-0.035c0.316,0.863,0.839,2.139,1.446,3.019c0.429,0.622,1.818,2.022,1.066-0.097   c-0.621-1.751-0.288-3.661,0.049-4.269c0.201-0.363,0.401-0.361,0.262,0.754c-0.14,1.116,0.27,2.869,0.709,3.718   c0.438,0.849,1.963,1.034,2.196-1.752c0.234-2.789-0.591-4.946-0.987-5.749c-0.255-0.517-0.135-1.004,0.225-0.583   c0.36,0.422,2.227,2.334,1.917,5.489c0,0,1.421-0.053,1.09-2.901c-0.332-2.85-1.415-4.257-1.632-4.611   c-0.217-0.353-0.158-0.923,0.345-0.434c0.502,0.491,2.221,2.03,2.473,4.38c0,0,1.318-0.645,0.786-2.127   c-0.587-1.634-1.353-2.84-1.944-3.633c-0.215-0.29,0.223-0.448,0.576-0.162c0.468,0.378,1.331,1.167,1.996,2.709   c0,0,0.917-1.093,0.404-1.673c-0.47-0.531-0.713-1.24-2.365-2.313C23.463,13.43,23.528,13.073,24.024,13.277" />
	<path fill="#ED3024" d="M13.57,12.119c-1.056,0.024-1.344-0.327-1.56-0.68c0,0,0.565,0.078,0.847,0.071   c0.282-0.007,1.621-0.037,2.255-0.051c0.635-0.015,0.991,0.335,1.066,0.601C16.179,12.06,14.628,12.095,13.57,12.119" />
	<path fill="#ED3024" d="M1.596,10.771c0.25-0.158,0.902-0.114,1.41,0.617c0.286,0.412,0.29,0.818,0.052,1.056   c-0.225,0.224-0.708,0.497-1.477-0.288C1.168,11.734,1.177,11.037,1.596,10.771" />
	<path fill="#ED3024" d="M42.59,34.248c0,0,0.05,3.389-3.415,2.738c0,0,0.311,1.636,0.324,2.35c0.012,0.713,0.03,1.643-1.548,0.099   c-0.216-0.209-0.475,0.174-0.342,0.576c0.299,0.908,0.593,3.527-1.024,1.946c-0.217-0.211-0.523-0.128-0.418,0.293   c0.759,3.055-0.507,4.039-1.161,2.162c-0.149-0.426-0.288-0.353-0.567-0.134c-0.277,0.22-2.922,2.052-2.922,2.052   c0.308,1.565-0.896,3-2.105,2.872c-1.122-0.119-1.405-1.485-1.364-2.368c0.007-0.152-0.169-0.24-0.284-0.141   c-0.85,0.75-2.567,1.262-3.294,0.13c-0.955-1.716,0.947-2.452,0.947-2.452c0.571-0.218,0.625-0.582-0.01-0.57   c-0.634,0.011-2.169,0.083-2.059-0.821c0.124-1.015,1.575-1.009,2.239-0.968c0.664,0.041,3.178,0.3,4.976,2.266   c0,0,4.964-2.684,4.45-7.502c-0.205-1.918-1.677-3.503-2.696-5.02c-1.018-1.515-1.681-2.919-0.894-5.266   c0.754,0.121,1.908,0.067,2.359-0.078c0,0,1.958,2.392,4.714,3.485C38.496,29.897,37.306,34.413,42.59,34.248" />
	<path fill="#ED3024" d="M2.573,4.491c0.324-1.942,2.96-2.532,4.926-1.808c1.09,0.401,2.57,0.041,3.339-0.259   c0.771-0.299,1.242-0.325,1.741-0.143c0.821,0.3,1.928,0.054,2.473-0.115c0,0-0.913,0.764-1.547,0.739   c-0.847-0.033-1.481,0.844-1.754,1.349c-0.273,0.505-0.601,0.771-1.747,0.816C8.417,5.136,8.344,6.226,8.22,6.73   C8.043,7.448,7.184,7.471,6.298,7.358c-1.656-0.209-2.447-0.587-3.08-1.093C2.586,5.761,2.502,5.165,2.573,4.491" />
	<path fill="#231F20" d="M19.115,6.586c0,0-1.129,0.02-1.551,0.028c-0.423,0.007-0.847-0.057-1.489-0.474l0.027,1.499   c0.217,0.353,1.99,1.035,3.722-0.781C20.032,6.641,19.115,6.586,19.115,6.586" />
	<path fill="#FFFFFF" d="M2.046,28.497c-0.031,0.154-0.072,0.223-0.161,0.216c-0.108-0.008-0.119-0.092-0.136-0.241   c-0.029-0.262,0.007-0.712,0.024-1.065c0.023-0.483,0.369-4.602,0.648-8.948c0.314-0.02,0.522-0.068,0.686-0.335   c0,0,0.366,0.129,0.727,0.006C3.834,18.129,2.327,27.072,2.046,28.497" />
	<path fill="#FFFFFF" d="M3.878,17.869L3.33,17.453c0.109-0.483-0.022-0.969-0.465-1.228c0.415-0.05,0.625-0.269,0.748-0.577   c0.117,0.075,0.427,0.145,0.638,0.151L3.878,17.869z" />
	<path fill="#FFFFFF" d="M4.3,15.452l-0.405-0.394c0.145-0.842-0.355-1.501-1.075-1.867c0.579,0.084,0.861-0.304,0.861-0.304   s0.414,0.078,0.684,0.044c-0.024,0.192-0.028,0.393,0.006,0.594c0.036,0.21,0.095,0.408,0.16,0.601L4.3,15.452z" />
	<path fill="#FFFFFF" d="M5.126,10.757c-0.289-0.146-0.533-0.202-0.939-0.165c0,0,0.468,0.66,0.617,1.085   c0,0-0.309,0.642-0.375,1.061c-0.152-0.202-0.275-0.268-0.48-0.458c0.235-0.805-0.431-1.808-1.002-2.144   c0.101-1.552,0.172-2.546,0.172-2.546c0.655,0.423,1.796,0.685,2.462,0.82L5.126,10.757z" />
	<path fill="#231F20" d="M76.454,6.919l1.75,0.407v8.009c0,2.921-0.848,3.811-3.629,3.811c-2.862,0-3.689-0.836-3.689-3.729V7.325   l1.507-0.396l0.039-0.011V6.176h-5.817V6.92l1.81,0.407v8.293c0,3.011,2.133,4.81,5.704,4.81c3.401,0,5.114-1.453,5.236-4.441   l0.385-8.663l1.587-0.408V6.176h-4.882V6.919z" />
	<polygon fill="#231F20" points="92.489,6.921 94.605,7.328 95.002,16.06 87.825,6.197 87.81,6.176 83.198,6.176 83.198,6.92    85.108,7.327 85.108,19.115 83.198,19.522 83.198,20.266 88.709,20.266 88.709,19.521 86.552,19.114 86.053,7.698 95.326,20.448    95.341,20.469 96.049,20.469 96.049,7.326 97.798,6.919 97.798,6.176 92.489,6.176  " />
	<polygon fill="#231F20" points="99.827,6.92 101.819,7.327 101.819,19.115 99.827,19.521 99.827,20.266 106.273,20.266    106.273,19.521 104.281,19.115 104.281,7.327 106.273,6.92 106.273,6.176 99.827,6.176  " />
	<polygon fill="#231F20" points="117.303,6.92 119.175,7.323 115.423,17.543 111.628,7.322 113.319,6.919 113.319,6.176    107.359,6.176 107.359,6.918 108.979,7.329 114.215,20.437 114.228,20.469 115.213,20.469 120.664,7.328 122.203,6.918    122.203,6.176 117.303,6.176  " />
	<polygon fill="#231F20" points="133.069,19.086 127.661,19.387 127.661,13.519 130.136,13.657 130.958,15.721 130.97,15.753    131.544,15.753 131.544,10.242 130.97,10.242 130.134,12.46 127.661,12.617 127.661,6.995 132.318,7.355 134.317,10.282    134.338,10.312 134.843,10.191 134.351,6.221 134.345,6.176 123.289,6.176 123.289,6.92 125.2,7.327 125.2,19.115 123.289,19.522    123.289,20.266 123.34,20.266 135.198,20.266 135.813,15.646 135.82,15.599 135.25,15.48  " />
	<path fill="#231F20" d="M147.241,10.049c0,2.365-0.593,2.875-3.344,2.875h-1.472V7.255h1.878   C146.616,7.255,147.241,7.603,147.241,10.049 M148.662,15.981c-0.931-1.753-1.728-2.171-3.035-2.354   c3.434-0.526,4.159-2.233,4.159-3.578c0-2.353-2.057-3.874-5.236-3.874h-6.498V6.92l1.911,0.407v11.788l-1.911,0.407v0.744h6.347   v-0.744l-1.973-0.407v-5.09h1.188c1.917,0,2.1,0.486,3.503,4.269c0.162,0.433,0.34,0.908,0.536,1.43   c0.151,0.41,0.4,0.542,1.023,0.542h3.021v-0.74l-1.359-0.412L148.662,15.981z" />
	<path fill="#231F20" d="M158.981,11.586c-2.381-0.719-3.074-1.133-3.074-2.492c0-1.604,1.232-1.94,2.267-1.94   c1.615,0,2.363,0.637,4.002,3.409l0.019,0.032l0.548-0.119l-0.452-4.254l-0.004-0.046h-0.587l-0.472,0.961   c-0.393-0.375-1.384-1.124-3.015-1.124c-2.463,0-4.116,1.5-4.116,3.731c0,2.574,2.089,3.606,4.345,4.339   c2.604,0.86,3.36,1.367,3.36,3.061c0,1.422-0.891,2.144-2.653,2.144c-2.117,0-2.972-0.965-4.813-4.283l-0.022-0.037l-0.607,0.188   l0.517,5.11h0.609l0.533-1.321c0.961,0.984,2.229,1.484,3.764,1.484c2.935,0,4.687-1.57,4.687-4.199   C163.815,14.081,162.233,12.562,158.981,11.586" />
	<polygon fill="#231F20" points="166.439,6.92 168.433,7.327 168.433,19.115 166.439,19.521 166.439,20.266 172.886,20.266    172.886,19.521 170.896,19.115 170.896,7.327 172.886,6.92 172.886,6.176 166.439,6.176  " />
	<polygon fill="#231F20" points="187.136,6.176 175.165,6.176 174.875,11.047 175.442,11.165 177.421,7.313 179.919,6.998    179.919,19.113 177.785,19.513 177.744,19.521 177.744,20.266 184.557,20.266 184.557,19.521 182.38,19.113 182.38,6.998    184.877,7.313 186.838,11.13 186.855,11.165 187.424,11.047 187.138,6.225  " />
	<polygon fill="#231F20" points="197.576,6.919 199.379,7.321 196.159,13.26 192.604,7.417 194.345,6.917 194.345,6.176    188.264,6.176 188.264,6.916 189.808,7.43 194.322,14.354 194.322,19.114 192.35,19.521 192.35,20.266 198.758,20.266    198.758,19.521 196.785,19.114 196.785,14.109 200.934,7.33 202.559,6.918 202.559,6.176 197.576,6.176  " />
	<path fill="#231F20" d="M205.455,16.358c-0.301,0-0.494-0.077-0.615-0.243c-0.284-0.391-0.17-1.33,0.357-2.954   c0.818-2.544,1.275-2.955,2.057-2.955c0.316,0,0.521,0.077,0.642,0.242c0.271,0.376,0.159,1.291-0.354,2.879   C206.682,15.94,206.285,16.358,205.455,16.358 M209.392,14.328c0.348-0.696,0.525-1.402,0.525-2.099c0-1.683-1.071-2.859-2.6-2.859   c-1.501,0-3.027,1.017-3.892,2.59c-0.409,0.748-0.634,1.563-0.634,2.298c0,1.917,1.308,2.92,2.602,2.92   C206.972,17.18,208.505,16.087,209.392,14.328" />
	<path fill="#231F20" d="M219.147,6.858c-0.796-0.638-1.352-0.691-1.808-0.691c-0.87,0-1.653,0.242-2.327,0.72   c-1.486,1.053-2.075,3.145-2.156,3.464l-0.276,1.151l-1.259,0.462l-0.024,0.01l-0.095,0.458h1.143l-1.647,7.084   c-0.221,0.766-0.651,1.241-1.281,1.41c-0.189,0.046-1.163,0.23-1.659-0.8l-0.026-0.053l-0.086,0.059l-0.231,0.987l0.017,0.019   c0.256,0.338,0.729,0.765,1.528,0.878c0.158,0.028,0.319,0.042,0.484,0.042c0.203,0,0.409-0.02,0.622-0.06   c0.024-0.004,0.59-0.107,0.848-0.22c0.806-0.351,1.355-1.106,1.638-2.244l1.821-7.102h2.591l0.221-1.065h-2.53   c0.08-0.334,0.467-1.878,1.073-3.027c0.84-1.398,1.769-1.146,2.152-0.953l0.135,1.289l0.564,0.268l0.591-2.032l0.008-0.033   L219.147,6.858z" />
	<polygon fill="#231F20" points="80.953,26.732 68.408,26.732 68.102,31.887 68.773,32.027 70.836,28.009 73.35,27.692    73.35,40.196 71.172,40.604 71.087,40.619 71.087,41.485 78.273,41.485 78.273,40.619 76.011,40.196 76.011,27.692 78.526,28.009    80.588,32.027 81.26,31.887 80.958,26.83  " />
	<path fill="#231F20" d="M94.336,34.852h-4.071l2.064-5.054L94.336,34.852z M93.548,26.584l-0.027-0.064h-1.046l-6.012,13.673   l-1.891,0.43v0.862h5.304v-0.862l-1.802-0.414l1.704-4.179h5.021l1.663,4.179l-1.824,0.414v0.862H101v-0.861l-1.763-0.429   L93.548,26.584z" />
	<path fill="#231F20" d="M111.767,32.36c-2.448-0.738-3.161-1.162-3.161-2.544c0-1.626,1.254-1.969,2.307-1.969   c1.656,0,2.427,0.659,4.119,3.521l0.038,0.065l0.65-0.142l-0.475-4.469l-0.011-0.092h-0.687l-0.474,0.967   c-0.412-0.377-1.451-1.136-3.119-1.136c-2.592,0-4.333,1.579-4.333,3.93c0,2.709,2.189,3.792,4.555,4.561   c2.68,0.886,3.459,1.405,3.459,3.136c0,1.446-0.91,2.181-2.709,2.181c-2.177,0-3.059-0.998-4.963-4.43l-0.041-0.073l-0.711,0.219   l0.547,5.399h0.713l0.538-1.334c1.003,0.998,2.314,1.504,3.897,1.504c3.083,0,4.925-1.651,4.925-4.417   C116.832,34.978,115.175,33.383,111.767,32.36" />
	<polygon fill="#231F20" points="132.679,37.119 128.55,26.797 128.523,26.732 123.274,26.732 123.274,27.596 125.262,28.018    125.262,40.199 123.274,40.622 123.274,41.485 128.683,41.485 128.683,40.623 126.882,40.2 126.343,28.496 131.551,40.999    131.577,41.063 132.458,41.063 137.253,28.476 137.253,40.2 135.434,40.623 135.434,41.485 141.9,41.485 141.9,40.622    139.912,40.199 139.912,28.018 141.9,27.596 141.9,26.732 136.523,26.732  " />
	<path fill="#231F20" d="M156.468,34.852h-4.072l2.064-5.054L156.468,34.852z M155.681,26.584l-0.029-0.064h-1.044l-6.013,13.673   l-1.891,0.43v0.862h5.304v-0.862l-1.803-0.414l1.704-4.179h5.021l1.663,4.179l-1.823,0.414v0.862h6.361v-0.861l-1.763-0.429   L155.681,26.584z" />
	<polygon fill="#231F20" points="177.978,27.598 180.181,28.021 180.585,36.898 173.217,26.775 173.187,26.732 168.313,26.732    168.313,27.596 170.301,28.019 170.301,40.199 168.313,40.622 168.313,41.485 174.145,41.485 174.145,40.62 171.9,40.197    171.392,28.527 180.937,41.654 180.968,41.698 181.779,41.698 181.779,28.017 183.598,27.594 183.598,26.732 177.978,26.732  " />
	<polygon fill="#231F20" points="189.57,27.596 191.641,28.019 191.641,40.198 189.57,40.621 189.57,41.485 196.374,41.485    196.374,40.621 194.302,40.198 194.302,28.019 196.374,27.596 196.374,26.732 189.57,26.732  " />
	<path fill="#231F20" d="M210.566,34.852h-4.071l2.066-5.054L210.566,34.852z M215.468,40.195l-5.689-13.611l-0.027-0.063h-1.044   l-6.014,13.673l-1.89,0.43v0.862h5.304v-0.862l-1.803-0.414l1.704-4.179h5.021l1.663,4.179l-1.823,0.414v0.862h6.361v-0.861   L215.468,40.195z" />
</g>
    </g>
  </g>
</svg>