<?xml version="1.0" encoding="utf-8"?>
<svg version="1.1" xmlns:xlink="http://www.w3.org/1999/xlink" width="232px" height="50px" xmlns="http://www.w3.org/2000/svg">
  <g transform="matrix(1 0 0 1 0 -225 )">
    <path d="M 1 250  A 24 24 0 0 1 25 226 L 207 226  A 24 24 0 0 1 231 250 A 24 24 0 0 1 207 274 L 25 274  A 24 24 0 0 1 1 250 Z " fill-rule="nonzero" fill="#ffffff" stroke="none" />
    <path d="M 0.5 250  A 24.5 24.5 0 0 1 25 225.5 L 207 225.5  A 24.5 24.5 0 0 1 231.5 250 A 24.5 24.5 0 0 1 207 274.5 L 25 274.5  A 24.5 24.5 0 0 1 0.5 250 Z " stroke-width="1" stroke="#ffffff" fill="none" stroke-opacity="0.00392156862745098" />
  </g>
</svg>