<?xml version="1.0" encoding="utf-8"?>
<svg version="1.1" xmlns:xlink="http://www.w3.org/1999/xlink" width="233px" height="50px" xmlns="http://www.w3.org/2000/svg">
  <g transform="matrix(1 0 0 1 0 -275 )">
    <path d="M 1 300  A 24 24 0 0 1 25 276 L 208 276  A 24 24 0 0 1 232 300 A 24 24 0 0 1 208 324 L 25 324  A 24 24 0 0 1 1 300 Z " fill-rule="nonzero" fill="#ffffff" stroke="none" />
    <path d="M 0.5 300  A 24.5 24.5 0 0 1 25 275.5 L 208 275.5  A 24.5 24.5 0 0 1 232.5 300 A 24.5 24.5 0 0 1 208 324.5 L 25 324.5  A 24.5 24.5 0 0 1 0.5 300 Z " stroke-width="1" stroke="#ffffff" fill="none" stroke-opacity="0.00392156862745098" />
  </g>
</svg>