<?xml version="1.0" encoding="utf-8"?>
<svg version="1.1" xmlns:xlink="http://www.w3.org/1999/xlink" width="19px" height="24px" xmlns="http://www.w3.org/2000/svg">
  <g transform="matrix(1 0 0 1 -197 -238 )">
    <path d="M 18.1118980169972 0  C 18.4886685552408 0  18.7533050047214 0.22159090909091  18.9058073654391 0.664772727272728  C 19.0583097261568 1.13068181818182  18.9955146364495 1.52840909090909  18.7174220963173 1.85795454545454  L 12 10.2613636363636  L 12 22.9090909090909  C 12.0835694050991 23.3863636363636  11.9086402266289 23.7215909090909  11.5587818696884 23.9147727272727  C 11.4421624173749 23.9715909090909  11.3300283286119 24  11.2223796033994 24  C 10.9801699716714 24  10.778328611898 23.8920454545455  10.6168555240793 23.6761363636364  L 7.17209631728045 19.3125  C 7.00165250236072 19.0965909090909  6.91643059490085 18.8409090909091  6.91643059490085 18.5454545454545  L 6.91643059490085 10.2613636363636  L 0.28257790368272 1.85795454545454  C 0.00448536355051935 1.52840909090909  -0.0583097261567517 1.13068181818182  0.0941926345609065 0.664772727272728  C 0.246694995278565 0.22159090909091  0.511331444759207 0  0.888101983002833 0  L 18.1118980169972 0  Z " fill-rule="nonzero" fill="#333333" stroke="none" transform="matrix(1 0 0 1 197 238 )" />
  </g>
</svg>