<?xml version="1.0" encoding="utf-8"?>
<svg version="1.1" xmlns:xlink="http://www.w3.org/1999/xlink" width="226px" height="37px" xmlns="http://www.w3.org/2000/svg">
  <g transform="matrix(1 0 0 1 -166 -5 )">
    <path d="M 180 36.2249999999999  C 180 36.2249999999999  180 33.4937810945274  180 33.4937810945274  C 180 33.4937810945274  166 25.0398009950242  166 25.0398009950242  C 166 25.0398009950242  180 14.9937810945274  180 14.9937810945274  C 180 14.9937810945274  180 9.99999999999996  180 9.99999999999996  C 180 7.23857625084599  182.238576250846 4.99999999999996  185 4.99999999999996  C 185 4.99999999999996  387 4.99999999999996  387 4.99999999999996  C 389.761423749154 4.99999999999996  392 7.23857625084599  392 9.99999999999996  C 392 9.99999999999996  392 36.2249999999999  392 36.2249999999999  C 392 38.9864237491539  389.761423749154 41.2249999999999  387 41.2249999999999  C 387 41.2249999999999  185 41.2249999999999  185 41.2249999999999  C 182.238576250846 41.2249999999999  180 38.9864237491539  180 36.2249999999999  Z " fill-rule="nonzero" fill="#083d77" stroke="none" fill-opacity="0.964705882352941" />
  </g>
</svg>