<?xml version="1.0" encoding="utf-8"?>
<svg version="1.1" xmlns:xlink="http://www.w3.org/1999/xlink" width="406px" height="48px" xmlns="http://www.w3.org/2000/svg">
  <g transform="matrix(1 0 0 1 0 -1 )">
    <path d="M 0.5 4  A 2.5 2.5 0 0 1 3 1.5 L 403 1.5  A 2.5 2.5 0 0 1 405.5 4 L 405.5 46  A 2.5 2.5 0 0 1 403 48.5 L 3 48.5  A 2.5 2.5 0 0 1 0.5 46 L 0.5 4  Z " fill-rule="nonzero" fill="#ffffff" stroke="none" />
    <path d="M 0.5 4  A 2.5 2.5 0 0 1 3 1.5 L 403 1.5  A 2.5 2.5 0 0 1 405.5 4 L 405.5 46  A 2.5 2.5 0 0 1 403 48.5 L 3 48.5  A 2.5 2.5 0 0 1 0.5 46 L 0.5 4  Z " stroke-width="1" stroke="#083d77" fill="none" />
  </g>
</svg>