<?xml version="1.0" encoding="utf-8"?>
<svg version="1.1" xmlns:xlink="http://www.w3.org/1999/xlink" width="412px" height="54px" xmlns="http://www.w3.org/2000/svg">
  <defs>
    <filter x="-3px" y="-2px" width="412px" height="54px" filterUnits="userSpaceOnUse" id="filter293">
      <feOffset dx="0" dy="0" in="SourceAlpha" result="shadowOffsetInner" />
      <feGaussianBlur stdDeviation="1.5" in="shadowOffsetInner" result="shadowGaussian" />
      <feComposite in2="shadowGaussian" operator="atop" in="SourceAlpha" result="shadowComposite" />
      <feColorMatrix type="matrix" values="0 0 0 0 0.0313725490196078  0 0 0 0 0.23921568627451  0 0 0 0 0.466666666666667  0 0 0 0.847058823529412 0  " in="shadowComposite" />
    </filter>
    <g id="widget294">
      <path d="M 0.5 4  A 2.5 2.5 0 0 1 3 1.5 L 403 1.5  A 2.5 2.5 0 0 1 405.5 4 L 405.5 46  A 2.5 2.5 0 0 1 403 48.5 L 3 48.5  A 2.5 2.5 0 0 1 0.5 46 L 0.5 4  Z " fill-rule="nonzero" fill="#ffffff" stroke="none" />
      <path d="M 0.5 4  A 2.5 2.5 0 0 1 3 1.5 L 403 1.5  A 2.5 2.5 0 0 1 405.5 4 L 405.5 46  A 2.5 2.5 0 0 1 403 48.5 L 3 48.5  A 2.5 2.5 0 0 1 0.5 46 L 0.5 4  Z " stroke-width="1" stroke="#083d77" fill="none" />
    </g>
  </defs>
  <g transform="matrix(1 0 0 1 3 2 )">
    <use xlink:href="#widget294" filter="url(#filter293)" />
    <use xlink:href="#widget294" />
  </g>
</svg>